<!DOCTYPE svg PUBLIC "-//W3C//DTD SVG 1.1//EN" "http://www.w3.org/Graphics/SVG/1.1/DTD/svg11.dtd">
<!-- Uploaded to: SVG Repo, www.svgrepo.com, Transformed by: SVG Repo Mixer Tools -->
<svg width="100px" height="100px" viewBox="0 0 48 48" id="svg5" version="1.1" xml:space="preserve" xmlns="http://www.w3.org/2000/svg" xmlns:svg="http://www.w3.org/2000/svg" fill="#000000">
<g id="SVGRepo_bgCarrier" stroke-width="0"/>
<g id="SVGRepo_tracerCarrier" stroke-linecap="round" stroke-linejoin="round"/>
<g id="SVGRepo_iconCarrier"> <defs id="defs2"/> <g id="layer1" transform="translate(-314.00003,-449)"> <path d="m 319,463.48769 19,-10 19,10 z" id="rect24147" style="fill:#e7e7e7;fill-opacity:1;fill-rule:evenodd;stroke:none;stroke-width:2;stroke-linecap:round;stroke-linejoin:round;stroke-miterlimit:4.1"/> <path d="M 331.48047,456.91933 319,463.48769 h 27.64648 a 21.191124,12.336339 0 0 0 -15.16601,-6.56836 z" id="ellipse84876" style="fill:#fafafa;fill-opacity:1;fill-rule:evenodd;stroke:none;stroke-width:2;stroke-linecap:round;stroke-linejoin:round;stroke-miterlimit:4.1;stroke-opacity:1"/> <path d="m 319,463.48769 h 38 v 4 h -38 z" id="rect24150" style="fill:#e7e7e7;fill-opacity:1;fill-rule:evenodd;stroke:none;stroke-width:2;stroke-linecap:round;stroke-linejoin:round;stroke-miterlimit:4.1"/> <path d="m 319,463.48769 v 4 h 29.76172 a 21.191124,12.336339 0 0 0 -2.11524,-4 z" id="path84874" style="fill:#fafafa;fill-opacity:1;fill-rule:evenodd;stroke:none;stroke-width:2;stroke-linecap:round;stroke-linejoin:round;stroke-miterlimit:4.1;stroke-opacity:1"/> <path d="m 320,467.48769 h 8 l -2,3 v 12.98819 l 2,3.01181 h -8 l 2,-3.01401 v -12.98599 z" id="rect24154" style="fill:#fcca3d;fill-opacity:1;fill-rule:evenodd;stroke:none;stroke-width:2;stroke-linecap:round;stroke-linejoin:round;stroke-miterlimit:4.1"/> <path d="m 348.00009,467.48769 h 8 l -2,3 v 12.98819 l 2,3.01181 h -8 l 2,-3.01401 v -12.98599 z" id="path24159" style="fill:#fcca3d;fill-opacity:1;fill-rule:evenodd;stroke:none;stroke-width:2;stroke-linecap:round;stroke-linejoin:round;stroke-miterlimit:4.1"/> <path d="m 333.99991,467.48769 h 8 l -2,3 v 12.98819 l 2,3.01181 h -8 l 2,-3.01401 v -12.98599 z" id="path24171" style="fill:#fcca3d;fill-opacity:1;fill-rule:evenodd;stroke:none;stroke-width:2;stroke-linecap:round;stroke-linejoin:round;stroke-miterlimit:4.1"/> <ellipse cx="338" cy="459.4877" id="ellipse24173" rx="0.93075401" ry="0.92241609" style="fill:#ff5576;fill-opacity:1;fill-rule:evenodd;stroke:none;stroke-width:2;stroke-linecap:round;stroke-linejoin:round;stroke-miterlimit:4.1"/> <ellipse cx="341.38382" cy="459.4877" id="ellipse956" rx="0.93075401" ry="0.92241609" style="fill:#ff5576;fill-opacity:1;fill-rule:evenodd;stroke:none;stroke-width:2;stroke-linecap:round;stroke-linejoin:round;stroke-miterlimit:4.1"/> <ellipse cx="334.58218" cy="459.4877" id="ellipse958" rx="0.93075401" ry="0.92241609" style="fill:#ff5576;fill-opacity:1;fill-rule:evenodd;stroke:none;stroke-width:2;stroke-linecap:round;stroke-linejoin:round;stroke-miterlimit:4.1"/> <path d="m 319,486.48769 h 38 v 6 h -38 z" id="rect24152" style="fill:#e7e7e7;fill-opacity:1;fill-rule:evenodd;stroke:none;stroke-width:2;stroke-linecap:round;stroke-linejoin:round;stroke-miterlimit:4.1"/> <path d="m 319,486.48769 v 3.16992 h 30.70312 a 3.68215,3.68215 0 0 0 3.60157,-3.16992 z" id="path88205" style="fill:#fafafa;fill-opacity:1;fill-rule:evenodd;stroke-width:2;stroke-linecap:round;stroke-linejoin:round;stroke-miterlimit:4.1"/> </g> </g>
</svg>