<!DOCTYPE svg PUBLIC "-//W3C//DTD SVG 1.1//EN" "http://www.w3.org/Graphics/SVG/1.1/DTD/svg11.dtd">
<!-- Uploaded to: SVG Repo, www.svgrepo.com, Transformed by: SVG Repo Mixer Tools -->
<svg height="100px" width="100px" version="1.1" id="Layer_1" xmlns="http://www.w3.org/2000/svg" xmlns:xlink="http://www.w3.org/1999/xlink" viewBox="0 0 394.1 292.1" enable-background="new 0 0 394.1 292.1" xml:space="preserve" fill="#000000">
<g id="SVGRepo_bgCarrier" stroke-width="0"/>
<g id="SVGRepo_tracerCarrier" stroke-linecap="round" stroke-linejoin="round"/>
<g id="SVGRepo_iconCarrier"> <g> <path fill="#27607c" d="M376.8,154.3c-7-11.9-22.3-15.8-34.2-8.8s-15.8,22.3-8.8,34.2c5.8,9.9,14.7,28.5,8.1,41.9 c-6.2,12.7-26.8,20.3-55.1,20.5c-0.3,0-0.6,0-0.8,0c-34.8,0-77.8-11.3-118.2-30.9c-2.2-1.1-4.4-2.2-6.6-3.3l26.1-18.2L46.2,166.7 l82,117l5.4-33.9c4,2.1,8.1,4.2,12.2,6.2c47.7,23.2,97.3,36,140.1,36c0.4,0,0.7,0,1.1,0c49.2-0.3,84.7-17.5,99.8-48.6 C399.3,218,395.7,186.3,376.8,154.3z"/> <path fill="#4abaf2" d="M53.5,108.2c-4.3-11.3-4.7-20.7-1.3-27.7c6.2-12.7,26.8-20.3,55.1-20.5c0.3,0,0.6,0,0.8,0 c27,0,59,6.8,90.9,19.1l-24,20.9l142.7,7.8L223.8,0L222,34.3c-39.7-16-79.7-24.5-114.9-24.3C57.9,10.2,22.5,27.4,7.3,58.5 c-9.6,19.7-9.8,42.9-0.6,67.3c3.8,10,13.3,16.2,23.4,16.2c2.9,0,5.9-0.5,8.8-1.6C51.9,135.5,58.4,121.1,53.5,108.2z"/> </g> </g>
</svg>