<!DOCTYPE svg PUBLIC "-//W3C//DTD SVG 1.1//EN" "http://www.w3.org/Graphics/SVG/1.1/DTD/svg11.dtd">
<!-- Uploaded to: SVG Repo, www.svgrepo.com, Transformed by: SVG Repo Mixer Tools -->
<svg fill="#acaaaa" height="100px" width="100px" version="1.1" id="Layer_1" xmlns="http://www.w3.org/2000/svg" xmlns:xlink="http://www.w3.org/1999/xlink" viewBox="0 0 511.754 511.754" xml:space="preserve" stroke="#acaaaa">
<g id="SVGRepo_bgCarrier" stroke-width="0"/>
<g id="SVGRepo_tracerCarrier" stroke-linecap="round" stroke-linejoin="round"/>
<g id="SVGRepo_iconCarrier"> <g> <g> <g> <path d="M86.927,86.927c3.337-3.337,3.337-8.73,0-12.066c-3.337-3.337-8.73-3.337-12.066,0 c-99.814,99.814-99.814,262.221,0,362.035c1.664,1.664,3.849,2.5,6.033,2.5c2.185,0,4.369-0.836,6.033-2.5 c3.337-3.337,3.337-8.738,0-12.066C-6.231,331.672-6.231,180.086,86.927,86.927z"/> <path d="M436.893,74.86c-3.337-3.337-8.73-3.337-12.066,0c-3.336,3.336-3.336,8.73,0,12.066 c93.158,93.158,93.158,244.745,0,337.903c-3.336,3.328-3.336,8.73,0,12.066c1.664,1.664,3.849,2.5,6.033,2.5 c2.185,0,4.369-0.836,6.033-2.5C536.708,337.081,536.708,174.675,436.893,74.86z"/> <path d="M255.877,162.01c9.412,0,17.067-7.654,17.067-17.067c0-9.412-7.654-17.067-17.067-17.067 c-9.412,0-17.067,7.654-17.067,17.067C238.81,154.356,246.464,162.01,255.877,162.01z"/> <path d="M255.877,68.144c-103.518,0-187.733,84.215-187.733,187.733S152.359,443.61,255.877,443.61 S443.61,359.395,443.61,255.877S359.395,68.144,255.877,68.144z M255.877,110.81c18.825,0,34.133,15.309,34.133,34.133 s-15.309,34.133-34.133,34.133s-34.133-15.309-34.133-34.133S237.052,110.81,255.877,110.81z M332.677,366.81 c0,4.71-3.814,8.533-8.533,8.533H204.677c-4.719,0-8.533-3.823-8.533-8.533v-34.133c0-4.71,3.814-8.533,8.533-8.533h25.6v-76.8 H213.21c-4.719,0-8.533-3.823-8.533-8.533v-34.133c0-4.71,3.814-8.533,8.533-8.533h76.8c4.719,0,8.533,3.823,8.533,8.533v119.467 h25.6c4.719,0,8.533,3.823,8.533,8.533V366.81z"/> <path d="M281.477,332.677V213.21h-59.733v17.067h17.067c4.719,0,8.533,3.823,8.533,8.533v93.867c0,4.71-3.814,8.533-8.533,8.533 h-25.6v17.067h102.4V341.21h-25.6C285.291,341.21,281.477,337.388,281.477,332.677z"/> </g> </g> </g> </g>
</svg>