<!DOCTYPE svg PUBLIC "-//W3C//DTD SVG 1.1//EN" "http://www.w3.org/Graphics/SVG/1.1/DTD/svg11.dtd">
<!-- Uploaded to: SVG Repo, www.svgrepo.com, Transformed by: SVG Repo Mixer Tools -->
<svg fill="#000000" width="100px" height="100px" viewBox="0 0 24 24" id="note-question" data-name="Flat Line" xmlns="http://www.w3.org/2000/svg" class="icon flat-line">
<g id="SVGRepo_bgCarrier" stroke-width="0"/>
<g id="SVGRepo_tracerCarrier" stroke-linecap="round" stroke-linejoin="round"/>
<g id="SVGRepo_iconCarrier">
<path id="secondary" d="M18,4H15V5a1,1,0,0,1-1,1H10A1,1,0,0,1,9,5V4H6A1,1,0,0,0,5,5V20a1,1,0,0,0,1,1H18a1,1,0,0,0,1-1V5A1,1,0,0,0,18,4Z" style="fill: #2ca9bc; stroke-width: 2;"/>
<rect id="primary" x="9" y="3" width="6" height="3" rx="1" style="fill: none; stroke: #000000; stroke-linecap: round; stroke-linejoin: round; stroke-width: 2;"/>
<path id="primary-2" data-name="primary" d="M12,14v-.5a.5.5,0,0,1,.5-.5h0A1.5,1.5,0,0,0,14,11.5h0A1.5,1.5,0,0,0,12.5,10H11" style="fill: none; stroke: #000000; stroke-linecap: round; stroke-linejoin: round; stroke-width: 2;"/>
<line id="primary-upstroke" x1="11.95" y1="17" x2="12.05" y2="17" style="fill: none; stroke: #000000; stroke-linecap: round; stroke-linejoin: round; stroke-width: 2.5;"/>
<path id="primary-3" data-name="primary" d="M18,4a1,1,0,0,1,1,1V20a1,1,0,0,1-1,1H6a1,1,0,0,1-1-1V5A1,1,0,0,1,6,4" style="fill: none; stroke: #000000; stroke-linecap: round; stroke-linejoin: round; stroke-width: 2;"/>
</g>
</svg>